<?xml version="1.0" encoding="UTF-8"?>
<!-- Generator: Adobe Illustrator 19.2.1, SVG Export Plug-In . SVG Version: 6.00 Build 0)  -->
<svg version="1.1" id="Layer_1" xmlns="http://www.w3.org/2000/svg" xmlns:xlink="http://www.w3.org/1999/xlink" x="0px" y="0px" viewBox="0 0 350 350" style="enable-background:new 0 0 350 350;" xml:space="preserve">
<style type="text/css">
	.st0{fill:#A57242;}
	.st1{fill:#002B64;}
	.st2{fill:#C49A6C;}
</style>
<g>
	<g>
		<path id="XMLID_5_" class="st0" d="M231.6,237.1v45h-5.7v-7.7c-5.1,6.2-11,9.2-17.6,9.2c-6.6,0-12.2-2.3-16.8-7    c-4.5-4.7-6.8-10.4-6.8-16.9c0-6.6,2.3-12.1,6.9-16.8c4.6-4.7,10.1-7,16.4-7c7.3,0,13.3,3.1,17.9,9.4v-8.2H231.6 M226.3,259.8    c0-5.1-1.7-9.5-5.2-13c-3.4-3.6-7.7-5.3-12.7-5.3c-5,0-9.2,1.8-12.6,5.5c-3.4,3.6-5.2,7.9-5.2,12.9c0,5,1.8,9.3,5.3,13    c3.5,3.6,7.7,5.4,12.5,5.4c4.9,0,9.1-1.8,12.6-5.3C224.5,269.5,226.3,265.1,226.3,259.8"/>
		<path id="XMLID_8_" class="st0" d="M244.6,282.1v-60.8h12.6c8.6,0,15,0.6,19,1.9c4.1,1.2,7.6,3.2,10.5,6c2.9,2.7,5.2,6,6.8,10    c1.6,4,2.4,8.6,2.4,13.9c0,5.3-1.2,10.2-3.7,14.9c-2.4,4.6-5.8,8.1-10,10.5c-4.2,2.4-10.2,3.6-18.1,3.6H244.6 M250.4,276.3h7    c7.3,0,12.7-0.4,15.9-1.1c3.3-0.7,6.2-2.2,8.7-4.3c2.5-2.2,4.4-4.9,5.7-8c1.3-3.1,1.9-6.7,1.9-10.7s-0.8-7.7-2.3-11.1    c-1.5-3.4-3.6-6.2-6.4-8.4c-2.8-2.2-6-3.7-9.8-4.4c-3.7-0.8-9.2-1.2-16.5-1.2h-4.3L250.4,276.3"/>
		<path id="XMLID_11_" class="st0" d="M166.1,224.6c0-1.3,0.5-2.4,1.4-3.4c1-1,2.1-1.4,3.4-1.4c1.4,0,2.5,0.5,3.4,1.4    c1,0.9,1.4,2,1.4,3.4c0,1.3-0.5,2.4-1.4,3.4c-0.9,0.9-2,1.4-3.4,1.4c-1.3,0-2.4-0.5-3.4-1.4C166.6,226.9,166.1,225.8,166.1,224.6     M168,237.1h5.8v45H168V237.1"/>
		<polyline id="XMLID_12_" class="st0" points="5,282.1 13.6,221.3 14.6,221.3 39.3,271.2 63.9,221.3 64.8,221.3 73.5,282.1     67.5,282.1 61.6,238.6 40.1,282.1 38.5,282.1 16.8,238.2 10.8,282.1 5,282.1   "/>
		<path id="XMLID_15_" class="st0" d="M129.2,237.1v45h-5.7v-7.7c-5.1,6.2-11,9.2-17.6,9.2c-6.6,0-12.2-2.3-16.8-7    c-4.5-4.7-6.8-10.4-6.8-16.9c0-6.6,2.3-12.1,6.9-16.8c4.6-4.7,10.1-7,16.4-7c7.3,0,13.3,3.1,17.9,9.4v-8.2H129.2 M123.8,259.8    c0-5.1-1.7-9.5-5.2-13c-3.4-3.6-7.7-5.3-12.7-5.3c-5,0-9.2,1.8-12.6,5.5c-3.4,3.6-5.2,7.9-5.2,12.9c0,5,1.8,9.3,5.3,13    c3.5,3.6,7.7,5.4,12.5,5.4c4.9,0,9.1-1.8,12.6-5.3C122.1,269.5,123.8,265.1,123.8,259.8"/>
		<path id="XMLID_16_" class="st0" d="M139,237.1h5.9v6.5c1.6-2.7,3.1-4.6,4.6-5.8c1.5-1.2,3.2-1.9,5-1.9c1.9,0,3.7,0.5,5.6,1.5    l-3,4.9c-0.8-0.5-1.7-0.8-2.6-0.8c-1.8,0-3.4,0.9-5,2.7c-1.5,1.8-2.7,4.2-3.4,7c-0.7,2.8-1.1,8-1.1,15.5v15.2H139L139,237.1"/>
		<path id="XMLID_20_" class="st0" d="M308.5,221.3h12c6.4,0,11.2,1.3,14.5,3.9c3.3,2.5,5,6.2,5,11c0,2.7-0.7,5.1-2,7.4    c-1.3,2.2-3.2,4-5.8,5.3c4.2,1.4,7.3,3.4,9.5,6.1c2.2,2.7,3.3,5.9,3.3,9.7c0,5-1.8,9.2-5.5,12.5c-3.7,3.3-8.4,4.9-14.2,4.9h-16.8    V221.3 M314.5,227.2v19.5h3.5c5.3,0,9.3-0.8,11.9-2.5c2.6-1.7,3.9-4.3,3.9-8c0-6-4.1-9-12.2-9H314.5 M314.5,252.8v23.4h7.5    c4.3,0,7.5-0.4,9.6-1.3c2.1-0.9,3.8-2.3,5.1-4.1c1.3-1.9,1.9-3.8,1.9-5.7c0-1.9-0.4-3.6-1.1-5.1c-0.7-1.5-1.8-2.8-3.3-3.9    c-1.4-1.1-3.1-2-5.2-2.5c-2-0.6-5.7-0.8-11.2-0.8H314.5"/>
	</g>
	<g>
		<path id="XMLID_21_" class="st1" d="M267.7,66.4c-3,0.1-2,1-8.5,2.6c-6.5,1.6-14.5,1.1-21.6,4.1c-21,8.8-25.2,39-44.4,49.8    c-14.3,8.1-28.7,8.7-41.7,12.8c-8.5,2.7-17.8,8.1-25.6,14.8c-6,5.2-6.1,9.7-12.4,16.2c-6.7,6.9-26.6,0.1-35.6,10.7    c2.9,2.9,4.2,3.8,9.9,3c-1.2,2.2-8.2,4.1-6.8,7.4c1.4,3.5,18.3,5.8,33.7-3.4c7.2-4.3,12.9-10.5,24-12c14.4-1.9,31,1.2,47.7,3.6    c-2.5,7.4-7.4,12.3-11.4,18.2c-1.2,1.3,2.5,1.5,6.7,0.7c7.6-1.9,13.1-3.4,18.8-6.7c7.1-4.1,8.1-14.6,16.8-16.9    c4.8,7.4,17.9,9.2,26.1,3.2c-7.1-2-9.1-17.2-6.7-23.9c2.3-6.3,4.5-16.5,6.8-24.9c2.5-9,3.4-20.4,6.4-24.9    c4.5-6.9,9.5-9.3,13.8-13.2c4.3-3.9,8.3-7.7,8.1-16.6C271.9,67.9,270.5,66.3,267.7,66.4L267.7,66.4z"/>
		<path id="XMLID_22_" class="st2" d="M84.2,187c10.9,1.6,17.6,0,26.4-3.8c7.5-3.2,14.7-9.9,23.5-12.8c13-4.2,27.2,0,41,0.8    c3.4,0.2,6.7,0.2,10-0.2c5.2-3.2,5.1-15,10.1-16.1c-0.1,16.7-7,26.6-14.1,36.3c15-2.7,24.1-11.4,30.1-23c1.8-3.5,3.4-7.3,4.8-11.3    c2.2,1.7,0.9,6.7,2,9.4c10.4-5.8,16.3-19,20.2-32.3c4.5-15.4,6.4-31,9.3-35.6c2.9-4.5,7.3-7.2,11.4-10.1c4.6-3.2,8.7-6.6,9.5-12.8    c-4.9-0.5-6-1.6-6.7-4c-2.4,1.4-4.7,1.7-7.2,1.7c-2.2,0.1-4.6,0-7.6,0.3c-24.4,2.5-27.5,29.4-43.2,44.7c-1.1,1.1-2.4,2.1-3.7,3.1    c-5.5,4.1-12.2,7-18.4,9.4c-10,3.8-19.5,4.1-28.9,7.4c-6.9,2.4-13.9,5.9-19.6,9.8c-1.4,1-2.7,2-4,3c-3.3,2.7-5.5,5.7-7.6,8.8    c-2.2,3.2-4.3,6.5-7.5,9.6c-5.2,5.1-24.6,1.5-31.4,6.2c-0.8,0.5-1.4,1.2-1.8,1.9c3.7,1.7,6.2,0.7,10.5,1.1    C92.2,182.7,82.8,185.2,84.2,187L84.2,187z"/>
		<path id="XMLID_23_" class="st2" d="M232.1,157.8c0.3,4.7,3,13.9,5.4,16.2c-4.7,1.1-12.7-0.7-14.8-4    C223.7,165.1,229.3,160.8,232.1,157.8z"/>
		<path id="XMLID_24_" class="st1" d="M238.9,83.8c3.5,3,10.7,0.6,9.4-5.4C243,77.9,239.9,79.8,238.9,83.8z"/>
		<path id="XMLID_25_" class="st1" d="M263,76.8c-0.9,1.9-2.7,4.4-2.7,9.3c0,0.8-0.6,1.4-0.7,0.1c0-4.8,1.3-6.9,2.7-9.6    C263,75.5,263.4,76,263,76.8z"/>
		<path id="XMLID_26_" class="st1" d="M262.1,76.1c-1.1,1.8-3.7,5.2-4.1,10.1c-0.1,0.8-0.8,1.4-0.7,0.1c0.5-4.8,2.6-7.8,4.1-10.4    C262.2,74.8,262.5,75.3,262.1,76.1z"/>
		<path id="XMLID_27_" class="st1" d="M261.3,75.1c-1.2,1.7-5.3,5.8-6.1,10.6c-0.2,0.8-0.9,1.3-0.7,0c0.9-4.7,4.3-8.4,6.1-10.9    C261.4,73.8,261.7,74.4,261.3,75.1z"/>
		<path id="XMLID_28_" class="st1" d="M260.5,74c-1.5,1.6-6.3,6.7-7.8,11.4c-0.3,0.8-1,1.2-0.7-0.1c1.5-4.5,5.7-9.4,7.8-11.6    C260.9,72.8,261.1,73.4,260.5,74L260.5,74z"/>
	</g>
</g>
</svg>