<?xml version="1.0" encoding="UTF-8"?>
<!-- Generator: Adobe Illustrator 21.0.0, SVG Export Plug-In . SVG Version: 6.00 Build 0)  -->
<svg version="1.1" id="Warstwa_1" xmlns="http://www.w3.org/2000/svg" xmlns:xlink="http://www.w3.org/1999/xlink" x="0px" y="0px" viewBox="0 0 299.7 249.1" style="enable-background:new 0 0 299.7 249.1;" xml:space="preserve">
<style type="text/css">
	.st0{fill:#238D83;}
	.st1{fill:#E51331;}
	.st2{fill:#BCBCBC;}
</style>
<g>
	<path class="st0" d="M71.8,87.3c1.1-18.9,2-39.1,3.4-59.3c0.5-6.4,2.1-12.8,3.4-19.1C79,6.9,80,4.9,81,3.1C82,1,83.8,0,86.3,0   c6.6,0.1,13.2,0.2,19.8,0c5.6-0.2,10.1,1.7,13.2,6.1c6.3,8.8,12.4,17.6,18.2,26.7c3,4.8,5.1,10.3,7.6,15.4c0.7,1.5,1.4,2.9,2.3,4.3   c1.1,1.7,2.4,1.8,3.5-0.1c1-1.9,1.9-3.9,2.8-5.9C160.5,31.4,169.9,18,181.3,6c3.9-4.1,8.5-6.2,14.3-6c5.3,0.3,10.7,0.3,16,0   c3.4-0.2,5.7,1.3,6.6,4.2c1.6,5.1,3.3,10.2,4.1,15.4c2.9,18,3.5,36.1,3.6,54.2c0.1,18,0.2,36.1-0.3,54.1   c-0.3,9.8-1.7,19.6-2.6,29.3c-0.1,1-0.4,2.1-0.7,3.1c-1.6,5.6-2.8,6.5-8.7,6.5c-8.5,0-17,0-25.5,0c-5.7,0-6.6-1.1-5.2-6.7   c7.7-31.2,11.3-62.9,10.7-95.1c-0.1-5-0.9-10.1-1.6-15.1c-0.2-1.4-0.8-2.8-1.4-4c-1.4-2.7-3.4-3.2-5.5-1.1c-2,2-3.8,4.3-5.1,6.8   C172,67,166.3,83.1,162.3,99.8c-1.4,6-2.6,12.1-4,18.2c-0.2,1.1-0.6,2.2-0.9,3.3c-1.2,3.7-3.2,6.8-7.6,7.1c-4.7,0.3-9-0.8-11.1-5.3   c-1.9-4.1-3.4-8.5-4.4-12.9c-4.6-19.8-11.6-38.7-20.1-57.1c-1-2.1-2.2-4.3-3.8-6c-1.2-1.4-3.3-2.9-4.8-2.8c-1.3,0.1-3,2.5-3.3,4.1   c-1.1,5-2.1,10.1-2.3,15.2c-1.2,32.9,3,65.1,11.6,96.9c0.2,0.9,0.5,1.8,0.7,2.8c0.4,1.8-0.3,3-2.1,3.5c-1.1,0.3-2.3,0.4-3.4,0.4   c-7.6,0-15.3,0-22.9,0c-4.1,0-5.7-0.8-6.7-4.8c-1.4-5.6-2.6-11.4-2.9-17.2C73.1,126.2,72.5,107.4,71.8,87.3z"/>
	<path class="st1" d="M127.6,159.2c0-3.9,3.2-7.1,7.1-7.1c3.9,0,7.2,3.1,7.2,7c0.1,4-3.3,7.4-7.3,7.3   C130.8,166.4,127.6,163.1,127.6,159.2z"/>
	<path class="st1" d="M168.8,158.9c0,4-3,7.1-7,7.1c-4,0.1-7.2-3-7.3-6.9c-0.1-3.9,3.3-7.4,7.2-7.4   C165.5,151.7,168.8,155,168.8,158.9z"/>
	<g>
		<path class="st2" d="M33.2,248.4h-4.2v-17.1c0-4.2,0-8.8,0.1-12.4c-1.1,3.6-2.7,8.3-4.1,12.4l-5.9,17.2H14l-6-17.3    c-1.4-4-2.9-8.6-4-12.2c0.1,3.6,0.1,8.2,0.1,12.3v17.1H0v-33.3h6.9l9.8,29.8l9.8-29.8h6.7V248.4z"/>
		<path class="st2" d="M63.9,248.4H41.8v-33.3h21.7v3.4H45.9v11.6H62v3.4H45.9v11.6h18V248.4z"/>
		<path class="st2" d="M103.3,248.4h-4.2v-17.1c0-4.2,0-8.8,0.1-12.4c-1.1,3.6-2.7,8.3-4.1,12.4l-5.9,17.2h-5.2l-6-17.3    c-1.4-4-2.9-8.6-4-12.2c0.1,3.6,0.1,8.2,0.1,12.3v17.1h-4.2v-33.3H77l9.8,29.8l9.8-29.8h6.7V248.4z"/>
		<path class="st2" d="M138.7,225.8l0,0.5h-4.2l-0.1-0.5c-1-4.8-3.9-8-9.5-8c-6.8,0-11,5.9-11,14c0,8.2,4.2,14.1,10.7,14.1    c5.5,0,8.5-3.2,9.5-8l0.1-0.5h4.2l0,0.5c-0.6,6-5.1,11.3-13.9,11.3c-9.7,0-15.1-7.4-15.1-17.2c0-10.1,6.3-17.5,15.7-17.5    C133.5,214.5,138,219.2,138.7,225.8z"/>
		<path class="st2" d="M149.7,236.7l-3.9,11.8h-4.4l12-33.3h5.6l11.5,33.3h-4.5l-4-11.8H149.7z M160.9,233.3l-4.8-14.9l-5.2,14.9    H160.9z"/>
		<path class="st2" d="M201.6,225.8l0,0.5h-4.2l-0.1-0.5c-1-4.8-3.9-8-9.5-8c-6.8,0-11,5.9-11,14c0,8.2,4.2,14.1,10.7,14.1    c5.5,0,8.5-3.2,9.5-8l0.1-0.5h4.2l0,0.5c-0.6,6-5.1,11.3-13.9,11.3c-9.7,0-15.1-7.4-15.1-17.2c0-10.1,6.3-17.5,15.7-17.5    C196.5,214.5,200.9,219.2,201.6,225.8z"/>
		<path class="st2" d="M235.2,248.4h-4.2v-14.6h-18.3v14.6h-4.2v-33.3h4.2v15.3h18.3v-15.3h4.2V248.4z"/>
		<path class="st2" d="M266,248.4h-22.2v-33.3h21.7v3.4H248v11.6H264v3.4H248v11.6h18V248.4z"/>
		<path class="st2" d="M299.7,231.4c0,9.8-5.7,15.9-13.4,16.8c-1.7,0.2-2.5,0.2-4.2,0.2h-9.9v-33.3h10.1c1.8,0,2.6,0,4.2,0.2    C294.3,216.3,299.7,221.5,299.7,231.4z M295.2,231.4c0-7.4-3.4-11.7-9.1-12.6c-1.1-0.2-2.3-0.2-4.1-0.2h-5.7v26.5h5.5    c1.7,0,3,0,4.1-0.2C291.5,243.9,295.2,239.3,295.2,231.4z"/>
	</g>
</g>
</svg>