<svg height="64" viewBox="0 0 32 32" width="64" xmlns="http://www.w3.org/2000/svg"><g transform="matrix(.05289371 0 0 .052893 3.999991 0)"><path d="m436.316 240.087c7.732.02 13.162-2.095 15.106-9.772 1.842-7.273-1.433-16.621-9.982-17.971-4.987-.788-16.906-.177-28.067 1.593 2.595 7.532 4.938 15.74 7.021 24.484 6.062 1.042 11.675 1.655 15.922 1.666z" style="fill:#fff;stroke:#000;stroke-width:6;stroke-linecap:round;stroke-linejoin:round;stroke-miterlimit:10"/><path d="m451.762 472.396c-8.434-9.021-20.476-14.647-33.413-15.726-4.126 10.828-9.124 19.561-14.866 26.967 11.273 1.652 18.73 6.738 27.623 12.456 13.666 8.785 33.01-10.481 20.656-23.697z" style="fill:#fff;stroke:#000;stroke-width:6;stroke-linecap:round;stroke-linejoin:round;stroke-miterlimit:10"/><path d="m171.953 586.341c-.258 20.1 29.262 20.428 35.16 3.369 3.471-10.039 6.272-18.821 13.216-27.204-12.122-.898-24.108-3.423-35.536-8.071-7.801 10.009-12.696 20.644-12.84 31.906z" style="fill:#fff;stroke:#000;stroke-width:6;stroke-linecap:round;stroke-linejoin:round;stroke-miterlimit:10"/><path d="m37.701 180.366c-6.229.655-11.809-3.871-12.465-10.108-.656-6.238 3.862-11.825 10.091-12.479 1.456-.153 2.872-.013 4.203.355-.407-8.924-.016-17.19 1.119-24.897-24.907.93-36.32 15.463-37.555 33.129-1.31 18.742 11.141 37.468 34.561 39.105 3.651.255 6.895.049 9.774-.552-2.455-9.115-4.338-17.702-5.655-25.792-1.234.647-2.604 1.085-4.073 1.239z" style="fill:#d0b698;stroke:#000;stroke-width:6;stroke-linecap:round;stroke-linejoin:round;stroke-miterlimit:10"/><path d="m35.327 157.778c-6.229.655-10.747 6.242-10.091 12.479s6.237 10.763 12.465 10.108c1.469-.154 2.839-.592 4.073-1.239-1.204-7.39-1.942-14.372-2.244-20.994-1.331-.367-2.747-.507-4.203-.354z"/><path d="m309.592 37.468c.511-.68 1.096-1.317 1.774-1.887 4.798-4.025 11.957-3.395 15.987 1.41 3.967 4.729 3.42 11.73-1.172 15.788 5.61 5.714 11.18 11.979 16.583 18.841 1.701-1.844 3.317-4.046 4.827-6.66 11.736-20.332 3.176-41.127-13.096-50.521-14.119-8.151-30.859-7.664-44.898 8.169 1.848 1.18 3.665 2.401 5.448 3.66 4.725 3.335 9.604 7.07 14.547 11.2z" style="fill:#d0b698;stroke:#000;stroke-width:6;stroke-linecap:round;stroke-linejoin:round;stroke-miterlimit:10"/><path d="m327.354 36.992c-4.03-4.805-11.189-5.436-15.987-1.41-.679.57-1.264 1.207-1.774 1.887 5.49 4.587 11.059 9.677 16.59 15.312 4.591-4.059 5.138-11.061 1.171-15.789z"/><path d="m127.003 523.285c1.946 4.361 12.639 4.612 19.787-.134-3.704-6.098-6.562-12.668-8.77-19.531-7.613 5.026-14.067 12.826-11.017 19.665z" style="fill:#fff;stroke:#000;stroke-width:6;stroke-linecap:round;stroke-linejoin:round;stroke-miterlimit:10"/><path d="m420.393 238.421c-2.082-8.744-4.426-16.952-7.021-24.484-6.519-18.921-14.621-33.558-24.152-41.551-9.144-42.65-26.687-75.661-46.455-100.765-5.403-6.861-10.973-13.127-16.583-18.841-5.531-5.635-11.1-10.724-16.59-15.312-4.943-4.13-9.822-7.865-14.546-11.199-1.783-1.259-3.601-2.479-5.448-3.66-38.035-24.282-89.932-31.174-159.703 9.577-48.626 28.401-82.414 54.617-89.247 101.05-1.134 7.708-1.525 15.973-1.119 24.897.302 6.622 1.041 13.604 2.244 20.994 1.317 8.089 3.201 16.676 5.655 25.792 2.433 9.035 5.425 18.587 9.033 28.736 12.141 34.149 34.259 66.99 46.802 85.997 12.709 19.258 24.75 54.917 26.631 90.017 1.416 26.414-1.781 63.135 8.125 93.951 2.207 6.863 5.066 13.434 8.77 19.531 6.542 10.775 15.719 20.08 28.625 26.918 3.076 1.629 6.207 3.075 9.378 4.365 11.428 4.648 23.415 7.173 35.536 8.071 50.471 3.739 103.228-20.578 127.21-35.837 22.083-14.049 41.403-24.279 55.943-43.031 5.742-7.406 10.74-16.139 14.866-26.967 4.834-12.688 8.474-28.246 10.716-47.902 6.42-56.267 2.939-121.584-8.67-170.347z" style="fill:#d0b698;stroke:#000;stroke-width:6;stroke-linecap:round;stroke-linejoin:round;stroke-miterlimit:10"/><ellipse cx="235.646" cy="67.681" rx="52.200001" ry="51.299999" style="fill:#fff;stroke:#000;stroke-width:6;stroke-linecap:round;stroke-linejoin:round;stroke-miterlimit:10"/><ellipse cx="118.851" cy="127.081" rx="52.200001" ry="51.299999" style="fill:#fff;stroke:#000;stroke-width:6;stroke-linecap:round;stroke-linejoin:round;stroke-miterlimit:10"/><circle cx="263.996" cy="59.581001" r="16.200001"/><circle cx="272.09601" cy="60.480999" fill="#fff" r="3.6"/><circle cx="146.095" cy="116.281" r="16.200001"/><circle cx="154.196" cy="117.181" fill="#fff" r="3.6"/><g stroke="#000" stroke-linecap="round" stroke-linejoin="round" stroke-miterlimit="10" stroke-width="6"><path d="m213.083 169.078c-9.664 4.506-9.3 9.495-16.832 14.72 2.005 5.293 4.714 12.359 7.977 20.67 7.355 18.729 28.819 4.246 23.938-6.716-3.579-8.041-9.976-22.408-13.135-29.504-.623.243-1.268.513-1.948.83z" fill="#fff"/><path d="m238.975 164.35c-11.064 4.464-14.537.238-23.943 3.898 3.159 7.096 9.556 21.463 13.135 29.504 4.881 10.962 30.008 4.701 21.009-13.295-4.086-8.173-7.59-15.04-10.201-20.107z" fill="#fff"/><path d="m321.989 287.733c-6.821-3.034-19.595-4.724-31.342-3.582-1.084 5.841-3.293 11.6-7.715 17.345 9.811 5.708 19.227 9.624 26.928 11.71 7.463 2.02 13.256 1.383 17.121-5.529 3.662-6.549 2.918-16.427-4.992-19.944z" fill="#fff"/><path d="m265.866 316.368c7.809-4.978 13.256-9.92 17.066-14.872 4.422-5.745 6.631-11.503 7.715-17.345.854-4.598 1.018-9.247 1.018-13.982" fill="none"/><path d="m241.202 134.614c-5.883-2.508-11.642-2.739-18.45-1.058-1.165 6.392-7.955 13.579-17.718 17.926-9.39 4.181-18.893 4.561-24.525 1.549-6.176 4.299-9.948 9.01-11.901 15.435-3.831 12.607 6.071 24.543 16.988 20.563 4.838-1.764 8.174-3.511 10.656-5.232 7.532-5.225 7.168-10.214 16.832-14.72.68-.317 1.325-.587 1.949-.83 9.406-3.66 12.879.566 23.943-3.898 2.062-.832 4.381-1.959 7.059-3.503 10.066-5.805 7.288-21.062-4.833-26.232z" fill="#ac967b"/></g><path d="m205.034 151.482c9.763-4.347 16.553-11.534 17.718-17.926.352-1.932.196-3.792-.554-5.479-3.234-7.265-16.163-8.566-28.878-2.906-12.714 5.661-20.399 16.141-17.165 23.405.846 1.9 2.359 3.388 4.354 4.454 5.632 3.012 15.135 2.633 24.525-1.548z"/><path d="m451.858 227.863c-4.442-.877-10.908-1.992-16.275-2.222" style="fill:none;stroke:#000;stroke-width:6;stroke-linecap:round;stroke-linejoin:round;stroke-miterlimit:10"/><path d="m450.958 492.011c-1.538-4.26-5.707-12.555-14.208-16.149" style="fill:none;stroke:#000;stroke-width:6;stroke-linecap:round;stroke-linejoin:round;stroke-miterlimit:10"/><path d="m186.405 600.925c-1.581-4.777-3.198-13.379.462-23.578" style="fill:none;stroke:#000;stroke-width:6;stroke-linecap:round;stroke-linejoin:round;stroke-miterlimit:10"/><path d="m328.036 305.421c-4.063-1.998-10.02-4.748-15.145-6.359" style="fill:none;stroke:#000;stroke-width:6;stroke-linecap:round;stroke-linejoin:round;stroke-miterlimit:10"/></g></svg>